<svg width="18" height="18" viewBox="0 0 18 18" fill="none" xmlns="http://www.w3.org/2000/svg">
<path d="M13.7879 12.3331C14.4469 11.3883 14.8334 10.2392 14.8334 8.99984C14.8334 8.57076 14.7871 8.15251 14.6992 7.7498M4.21232 12.3332C3.55326 11.3883 3.16675 10.2392 3.16675 8.99984C3.16675 5.77818 5.77842 3.1665 9.00008 3.1665C9.35186 3.1665 9.69637 3.19764 10.031 3.25731M12.75 5.24984L9 8.99984M17.3334 8.99984C17.3334 13.6022 13.6025 17.3332 9.00008 17.3332C4.39771 17.3332 0.666748 13.6022 0.666748 8.99984C0.666748 4.39746 4.39771 0.666504 9.00008 0.666504C13.6025 0.666504 17.3334 4.39746 17.3334 8.99984ZM9.83342 8.99984C9.83342 9.46007 9.46032 9.83317 9.00008 9.83317C8.53984 9.83317 8.16675 9.46007 8.16675 8.99984C8.16675 8.5396 8.53984 8.1665 9.00008 8.1665C9.46032 8.1665 9.83342 8.5396 9.83342 8.99984Z" stroke="#FF9549" stroke-linecap="round" stroke-linejoin="round"/>
</svg>
