<svg width="18" height="18" viewBox="0 0 18 18" fill="none" xmlns="http://www.w3.org/2000/svg">
<path d="M9.00008 11.4998C10.3808 11.4998 11.5001 10.3805 11.5001 8.99984C11.5001 7.61913 10.3808 6.49984 9.00008 6.49984C7.61937 6.49984 6.50008 7.61913 6.50008 8.99984C6.50008 10.3805 7.61937 11.4998 9.00008 11.4998Z" stroke="#FF9549" stroke-linecap="round" stroke-linejoin="round"/>
<path d="M14.6061 11.2726C14.5053 11.5011 14.4752 11.7545 14.5198 12.0003C14.5643 12.246 14.6815 12.4728 14.8561 12.6514L14.9016 12.6968C15.0425 12.8375 15.1542 13.0046 15.2305 13.1886C15.3067 13.3725 15.346 13.5697 15.346 13.7688C15.346 13.9679 15.3067 14.1651 15.2305 14.349C15.1542 14.5329 15.0425 14.7 14.9016 14.8407C14.7609 14.9816 14.5938 15.0934 14.4098 15.1696C14.2259 15.2459 14.0287 15.2851 13.8296 15.2851C13.6305 15.2851 13.4334 15.2459 13.2494 15.1696C13.0655 15.0934 12.8984 14.9816 12.7577 14.8407L12.7122 14.7953C12.5337 14.6206 12.3069 14.5035 12.0611 14.4589C11.8154 14.4144 11.5619 14.4444 11.3334 14.5453C11.1093 14.6413 10.9183 14.8008 10.7836 15.004C10.649 15.2073 10.5768 15.4455 10.5758 15.6892V15.818C10.5758 16.2199 10.4162 16.6052 10.1321 16.8894C9.84792 17.1735 9.46253 17.3332 9.06069 17.3332C8.65884 17.3332 8.27346 17.1735 7.98931 16.8894C7.70517 16.6052 7.54554 16.2199 7.54554 15.818V15.7498C7.53967 15.4991 7.45851 15.2559 7.31259 15.0519C7.16667 14.8479 6.96276 14.6925 6.72735 14.6059C6.49886 14.5051 6.24539 14.475 5.99964 14.5195C5.75388 14.5641 5.52711 14.6812 5.34857 14.8559L5.30311 14.9014C5.1624 15.0422 4.99529 15.154 4.81135 15.2302C4.62742 15.3065 4.43026 15.3457 4.23114 15.3457C4.03203 15.3457 3.83487 15.3065 3.65093 15.2302C3.46699 15.154 3.29989 15.0422 3.15917 14.9014C3.0183 14.7606 2.90654 14.5935 2.83029 14.4096C2.75405 14.2257 2.7148 14.0285 2.7148 13.8294C2.7148 13.6303 2.75405 13.4331 2.83029 13.2492C2.90654 13.0652 3.0183 12.8981 3.15917 12.7574L3.20463 12.712C3.37928 12.5334 3.49643 12.3066 3.54099 12.0609C3.58555 11.8151 3.55547 11.5617 3.45463 11.3332C3.35859 11.1091 3.19914 10.918 2.99589 10.7834C2.79264 10.6488 2.55447 10.5766 2.31069 10.5756H2.1819C1.78006 10.5756 1.39467 10.416 1.11053 10.1318C0.82638 9.84767 0.666748 9.46229 0.666748 9.06044C0.666748 8.6586 0.82638 8.27322 1.11053 7.98907C1.39467 7.70492 1.78006 7.54529 2.1819 7.54529H2.25008C2.50083 7.53943 2.74402 7.45826 2.94804 7.31235C3.15205 7.16643 3.30744 6.96252 3.39402 6.72711C3.49487 6.49861 3.52495 6.24515 3.48039 5.99939C3.43583 5.75364 3.31867 5.52687 3.14402 5.34832L3.09857 5.30287C2.95769 5.16215 2.84594 4.99505 2.76969 4.81111C2.69344 4.62717 2.65419 4.43001 2.65419 4.2309C2.65419 4.03178 2.69344 3.83462 2.76969 3.65069C2.84594 3.46675 2.95769 3.29965 3.09857 3.15893C3.23928 3.01805 3.40639 2.9063 3.59032 2.83005C3.77426 2.7538 3.97142 2.71455 4.17054 2.71455C4.36965 2.71455 4.56681 2.7538 4.75075 2.83005C4.93469 2.9063 5.10179 3.01805 5.24251 3.15893L5.28796 3.20438C5.46651 3.37903 5.69328 3.49619 5.93903 3.54075C6.18478 3.58531 6.43825 3.55523 6.66675 3.45438H6.72735C6.95142 3.35835 7.14252 3.19889 7.27712 2.99564C7.41172 2.79239 7.48396 2.55422 7.48493 2.31044V2.18166C7.48493 1.77981 7.64456 1.39443 7.92871 1.11028C8.21285 0.826136 8.59824 0.666504 9.00008 0.666504C9.40192 0.666504 9.78731 0.826136 10.0715 1.11028C10.3556 1.39443 10.5152 1.77981 10.5152 2.18166V2.24984C10.5162 2.49362 10.5884 2.73179 10.723 2.93504C10.8576 3.13829 11.0487 3.29774 11.2728 3.39378C11.5013 3.49462 11.7548 3.5247 12.0005 3.48014C12.2463 3.43558 12.4731 3.31843 12.6516 3.14378L12.6971 3.09832C12.8378 2.95745 13.0049 2.84569 13.1888 2.76944C13.3727 2.69319 13.5699 2.65395 13.769 2.65395C13.9681 2.65395 14.1653 2.69319 14.3492 2.76944C14.5332 2.84569 14.7003 2.95745 14.841 3.09832C14.9819 3.23904 15.0936 3.40614 15.1699 3.59008C15.2461 3.77402 15.2854 3.97118 15.2854 4.17029C15.2854 4.36941 15.2461 4.56657 15.1699 4.7505C15.0936 4.93444 14.9819 5.10154 14.841 5.24226L14.7955 5.28772C14.6209 5.46626 14.5037 5.69303 14.4592 5.93879C14.4146 6.18454 14.4447 6.43801 14.5455 6.6665V6.72711C14.6416 6.95118 14.801 7.14228 15.0043 7.27688C15.2075 7.41148 15.4457 7.48371 15.6895 7.48469H15.8183C16.2201 7.48469 16.6055 7.64432 16.8896 7.92846C17.1738 8.21261 17.3334 8.59799 17.3334 8.99984C17.3334 9.40168 17.1738 9.78707 16.8896 10.0712C16.6055 10.3554 16.2201 10.515 15.8183 10.515H15.7501C15.5063 10.516 15.2681 10.5882 15.0649 10.7228C14.8616 10.8574 14.7022 11.0485 14.6061 11.2726Z" stroke="#FF9549" stroke-linecap="round" stroke-linejoin="round"/>
</svg>
