<svg width="21" height="21" viewBox="0 0 21 21" fill="none" xmlns="http://www.w3.org/2000/svg">
<path d="M13.9996 2V7M13.9996 7L18.9996 7M13.9996 7L19.9996 1M9.22664 11.8631C8.02506 10.6615 7.07627 9.30285 6.38028 7.85323C6.32041 7.72854 6.29048 7.66619 6.26748 7.5873C6.18576 7.30695 6.24446 6.96269 6.41447 6.72526C6.46231 6.65845 6.51947 6.60129 6.63378 6.48698C6.98338 6.13737 7.15819 5.96257 7.27247 5.78679C7.70347 5.1239 7.70347 4.26932 7.27247 3.60643C7.15819 3.43065 6.98338 3.25585 6.63378 2.90624L6.43891 2.71137C5.90747 2.17993 5.64174 1.91421 5.35636 1.76987C4.7888 1.4828 4.11854 1.4828 3.55098 1.76987C3.2656 1.91421 2.99987 2.17993 2.46843 2.71137L2.3108 2.86901C1.78117 3.39863 1.51636 3.66344 1.31411 4.02348C1.08969 4.42298 0.928332 5.04347 0.929696 5.5017C0.930924 5.91464 1.01103 6.19687 1.17124 6.76131C2.03221 9.79471 3.65668 12.6571 6.04466 15.045C8.43264 17.433 11.295 19.0575 14.3284 19.9185C14.8928 20.0787 15.1751 20.1588 15.588 20.16C16.0462 20.1614 16.6667 20 17.0662 19.7756C17.4263 19.5733 17.6911 19.3085 18.2207 18.7789L18.3783 18.6213C18.9098 18.0898 19.1755 17.8241 19.3198 17.5387C19.6069 16.9712 19.6069 16.3009 19.3198 15.7333C19.1755 15.448 18.9098 15.1822 18.3783 14.6508L18.1835 14.4559C17.8339 14.1063 17.6591 13.9315 17.4833 13.8172C16.8204 13.3862 15.9658 13.3862 15.3029 13.8172C15.1271 13.9315 14.9523 14.1063 14.6027 14.4559C14.4884 14.5702 14.4313 14.6274 14.3644 14.6752C14.127 14.8453 13.7828 14.904 13.5024 14.8222C13.4235 14.7992 13.3612 14.7693 13.2365 14.7094C11.7869 14.0134 10.4282 13.0646 9.22664 11.8631Z" stroke="white" stroke-width="1.5" stroke-linecap="round" stroke-linejoin="round"/>
</svg>
