<svg width="16" height="20" viewBox="0 0 16 20" fill="none" xmlns="http://www.w3.org/2000/svg">
<path fill-rule="evenodd" clip-rule="evenodd" d="M8.95926 19.0461C8.64088 19.3618 8.32044 19.6796 8 20C7.67956 19.6796 7.35912 19.3618 7.04074 19.0461C3.38479 15.4208 0 12.0643 0 8C0 3.58172 3.58172 0 8 0C12.4183 0 16 3.58172 16 8C16 12.0643 12.6152 15.4208 8.95926 19.0461ZM11 8C11 9.65685 9.65685 11 8 11C6.34315 11 5 9.65685 5 8C5 6.34315 6.34315 5 8 5C9.65685 5 11 6.34315 11 8Z" fill="white"/>
</svg>
