<svg width="54" height="70" viewBox="0 0 54 70" fill="none" xmlns="http://www.w3.org/2000/svg">
<mask id="mask0_3_227" style="mask-type:luminance" maskUnits="userSpaceOnUse" x="0" y="0" width="54" height="70">
<path d="M54 0H0V70H54V0Z" fill="white"/>
</mask>
<g mask="url(#mask0_3_227)">
<path d="M52.9482 2.74096C52.5408 1.88216 51.659 1.2702 49.6838 1.07479C40.5608 0.169703 36.2907 0 26.7914 0H26.7863C17.2817 0 13.1405 0.154275 3.87836 1.07479C1.89803 1.2702 1.01616 1.88216 0.608751 2.7461C0.309639 3.38378 0.268382 4.1603 0.227126 5.00368C-0.273114 15.3761 0.0311553 43.5983 1.41326 59.4784C1.57312 61.3142 1.6608 63.2633 1.92897 64.8781C2.33638 67.3208 3.35748 68.015 5.30171 68.4162C8.69508 69.1206 15.3631 69.6812 26.7706 69.6812C38.1783 69.6812 44.8618 69.1258 48.2604 68.4212C50.2045 68.0201 51.2258 67.331 51.6332 64.8832C51.9012 63.2684 51.9838 61.3194 52.1488 59.4836C53.5309 43.6035 53.8351 15.3813 53.3349 5.00882C53.2936 4.1603 53.2524 3.38378 52.9482 2.74096ZM2.61486 6.15046C2.67675 4.8751 2.48078 3.97002 3.51221 3.27064L18.5555 5.97561C19.0712 5.68249 26.5541 5.67735 26.7863 5.67735C27.0183 5.67735 34.5012 5.68249 35.0169 5.97561L49.9364 3.25007C50.973 3.94432 50.7976 4.8751 50.8596 6.15046C51.0142 9.3594 51.0864 14.3425 51.0762 20.1329L51.0709 20.2306L39.1323 21.0638C36.1669 21.3415 35.8215 22.0975 35.8111 23.4602C35.8111 23.4602 35.672 32.799 35.5893 36.08C35.4759 40.7443 35.0736 47.6969 35.0685 47.9282C35.0323 49.0443 34.2795 49.8619 33.212 49.9493C33.212 49.9493 29.406 50.0882 26.7964 50.0625C26.7759 50.0625 26.7604 50.0625 26.7397 50.0625C26.7192 50.0625 26.7038 50.0625 26.6831 50.0625C24.0735 50.083 20.2675 49.9493 20.2675 49.9493C19.2001 49.8567 18.4421 49.0443 18.411 47.9282C18.4059 47.6969 18.0036 40.7443 17.8902 36.08C17.8077 32.799 17.6685 23.4602 17.6685 23.4602C17.6633 22.0975 17.3126 21.3415 14.3473 21.0638L2.39826 20.1175C2.38795 14.3322 2.46015 9.35425 2.61486 6.15046ZM26.7346 52.1142H26.7914L32.7426 52.0526C37.384 52.0783 36.9251 51.6824 37.544 47.6094C37.6986 46.5912 39.8491 23.671 39.8491 23.671C39.9213 23.1414 40.2153 22.9151 40.633 22.8637L50.7357 21.542C50.9214 21.5163 51.0864 21.6655 51.0813 21.8557C51.0813 21.8557 50.2562 59.787 49.1886 64.3998C48.9566 65.3923 48.6987 65.6238 47.8323 65.8294C47.8323 65.8294 42.7422 67.0276 26.745 67.0431C10.7373 67.0224 5.64723 65.8243 5.64723 65.8243C4.78085 65.6186 4.523 65.3923 4.29092 64.3947C3.2234 59.787 2.39826 21.8557 2.39826 21.8557C2.3931 21.6706 2.55813 21.5215 2.74379 21.542L12.8466 22.8637C13.2643 22.9203 13.5582 23.1414 13.6304 23.671C13.6304 23.671 15.7809 46.5912 15.9357 47.6094C16.5545 51.6772 16.0955 52.0783 20.7369 52.0526L26.6882 52.1142H26.7346Z" fill="white"/>
<path d="M22.3144 56.3913C22.2937 56.3605 22.2577 56.3398 22.2215 56.3398H20.597C20.5558 56.3398 20.5249 56.3605 20.4991 56.3913L17.1211 61.3951C17.0953 61.431 17.1211 61.4824 17.1676 61.4824H18.7456C18.7817 61.4824 18.8179 61.4619 18.8384 61.431L19.7099 60.1454C19.7513 60.0836 19.8235 60.0477 19.8956 60.0477H22.9177C22.9951 60.0477 23.0621 60.0836 23.1034 60.1454L23.9749 61.431C23.9956 61.4619 24.0316 61.4824 24.0677 61.4824H25.6459C25.6922 61.4824 25.718 61.431 25.6922 61.3951L22.3144 56.3913ZM22.2833 59.2403H20.5351C20.4475 59.2403 20.3908 59.1426 20.4424 59.0654L21.3139 57.7695C21.3602 57.7027 21.4531 57.7027 21.4996 57.7695L22.3762 59.0654C22.4227 59.1426 22.3711 59.2403 22.2833 59.2403Z" fill="white"/>
<path d="M17.0545 56.3398H8.94237C8.89596 56.3398 8.87017 56.3913 8.89596 56.4273L9.31368 57.0496C9.35494 57.1112 9.42714 57.1473 9.49933 57.1473H12.1037C12.1656 57.1473 12.2171 57.1987 12.2171 57.2603V61.4208C12.2171 61.4567 12.2429 61.4824 12.279 61.4824H13.6972C13.7333 61.4824 13.7591 61.4567 13.7591 61.4208V57.2603C13.7591 57.1987 13.8107 57.1473 13.8726 57.1473H16.482C16.5594 57.1473 16.6264 57.1112 16.6677 57.0496L17.0854 56.4273C17.1267 56.3913 17.1009 56.3398 17.0545 56.3398Z" fill="white"/>
<path d="M35.2169 56.3398H33.7988C33.7627 56.3398 33.7369 56.3707 33.7369 56.4016V60.0015C33.7369 60.0477 33.6853 60.0734 33.644 60.0477L28.9562 56.3913C28.915 56.3605 28.8634 56.3398 28.8067 56.3398H27.4091C27.373 56.3398 27.3472 56.3707 27.3472 56.4016V61.4208C27.3472 61.4567 27.373 61.4824 27.4091 61.4824H28.8274C28.8634 61.4824 28.8892 61.4567 28.8892 61.4208V57.821C28.8892 57.7747 28.9408 57.749 28.982 57.7747L33.6698 61.431C33.7111 61.4619 33.7627 61.4824 33.8194 61.4824H35.2169C35.2531 61.4824 35.2789 61.4567 35.2789 61.4208V56.4016C35.2789 56.3707 35.2531 56.3398 35.2169 56.3398Z" fill="white"/>
<path d="M45.0006 61.4217L41.6073 58.6293C41.5764 58.6036 41.5764 58.5522 41.6124 58.5264L44.9955 56.4077C45.0264 56.3924 45.0109 56.3459 44.9749 56.3459H43.2421C43.1802 56.3459 43.1235 56.3615 43.0719 56.3974L39.3846 58.7065C39.3433 58.7322 39.2866 58.7013 39.2866 58.655V56.4129C39.2866 56.3768 39.2608 56.3511 39.2247 56.3511H37.8064C37.7704 56.3511 37.7446 56.3768 37.7446 56.4129V61.4319C37.7446 61.468 37.7755 61.4937 37.8064 61.4937H39.2247C39.2608 61.4937 39.2866 61.468 39.2866 61.4319V60.0538C39.2866 60.0126 39.3072 59.9767 39.3433 59.9561L40.545 59.2053C40.5862 59.1796 40.6429 59.1847 40.6789 59.2155L43.3659 61.4269C43.4226 61.4731 43.4947 61.4989 43.5721 61.4989H44.9749C45.0162 61.4833 45.0316 61.4422 45.0006 61.4217Z" fill="white"/>
</g>
</svg>
